<svg width="1000" height="1000" viewBox="0 0 1000 1000" fill="none" xmlns="http://www.w3.org/2000/svg">
  <path d="M403.134 304.845C503.996 254.672 606.121 232.094 689.428 235.719C773.134 239.361 835.368 269.161 861.082 320.855C886.796 372.549 873.019 440.16 825.425 509.115C778.058 577.742 698.441 645.569 597.579 695.741C496.717 745.914 394.592 768.492 311.284 764.867C227.578 761.225 165.344 731.425 139.63 679.731C113.916 628.037 127.693 560.426 175.287 491.471C222.654 422.844 302.271 355.017 403.134 304.845Z" stroke="#C4956A" stroke-width="20"/>
  <path d="M397.661 307.567C496.991 258.157 597.725 236.258 680.024 240.362C762.686 244.484 824.39 274.537 850.139 326.299C875.887 378.061 862.629 445.401 816.048 513.814C769.672 581.925 691.437 649.053 592.107 698.463C492.777 747.873 392.043 769.771 309.744 765.667C227.082 761.545 165.378 731.493 139.63 679.731C113.882 627.969 127.139 560.628 173.72 492.216C220.096 424.105 298.331 356.977 397.661 307.567Z" stroke="#C4956A" stroke-width="20"/>
  <path d="M389.627 311.563C486.706 263.273 585.398 242.373 666.213 247.18C747.346 252.004 808.272 282.428 834.071 334.292C859.869 386.155 847.378 453.1 802.28 520.716C757.358 588.068 681.152 654.169 584.073 702.46C486.994 750.75 388.303 771.649 307.487 766.843C226.355 762.018 165.429 731.595 139.63 679.731C113.831 627.867 126.323 560.923 171.421 493.307C216.342 425.955 292.549 359.854 389.627 311.563Z" stroke="#C4956A" stroke-width="20"/>
  <path d="M382.418 315.15C477.475 267.865 574.331 247.861 653.817 253.296C733.578 258.75 793.807 289.508 819.652 341.464C845.496 393.42 833.692 460.01 789.923 526.912C746.306 593.583 671.92 658.761 576.863 706.046C481.806 753.331 384.95 773.334 305.464 767.899C225.703 762.445 165.475 731.687 139.63 679.731C113.785 627.775 125.589 561.185 169.358 494.283C212.975 427.612 287.361 362.434 382.418 315.15Z" stroke="#C4956A" stroke-width="20"/>
  <path d="M580.164 362.336V587.752C580.164 593.686 578.893 598.105 576.35 601.012C573.322 604.645 569.023 607.853 563.453 610.639C558.004 613.424 553.523 614.816 550.012 614.816C545.773 614.816 543.654 612.213 543.654 607.006V381.59C543.654 376.504 544.926 372.447 547.469 369.42C550.617 365.666 554.916 362.275 560.365 359.248C565.814 356.1 570.295 354.525 573.807 354.525C578.045 354.525 580.164 357.129 580.164 362.336Z" fill="#C4956A"/>
  <path d="M409.492 421.67V647.086C409.492 653.02 408.221 657.439 405.678 660.346C402.65 663.978 398.352 667.187 392.781 669.973C387.332 672.758 382.852 674.15 379.34 674.15C375.102 674.15 372.982 671.547 372.982 666.34V440.924C372.982 435.838 374.254 431.781 376.797 428.754C379.945 425 384.244 421.609 389.693 418.582C395.143 415.434 399.623 413.859 403.135 413.859C407.373 413.859 409.492 416.463 409.492 421.67Z" fill="#C4956A"/>
</svg>
